<?xml version="1.0" encoding="UTF-8"?>
<svg width="593pt" height="835pt" version="1.1" viewBox="0 0 592.5 835" xmlns="http://www.w3.org/2000/svg"><g class="graph" transform="scale(1) translate(4 831)"><title>coi</title><polygon points="-4 4 -4 -831 588.5 -831 588.5 4" fill="#fff" stroke="transparent"/><g class="node"><title>lvl1a</title><polygon points="402 -800 175 -800 175 -762 402 -762" fill="#d5e8d4" stroke="#000"/><text x="288.5" y="-784.8" font-family="Times,serif" font-size="14" text-anchor="middle">The conflict of interest (COI)</text><text x="288.5" y="-769.8" font-family="Times,serif" font-size="14" text-anchor="middle">is reported for investigation.</text></g><g class="node"><title>lvl2a</title><polygon points="281.5 -699 115.5 -699 115.5 -661 281.5 -661" fill="#d5e8d4" stroke="#000"/><text x="198.5" y="-683.8" font-family="Times,serif" font-size="14" text-anchor="middle">Private investigation</text><text x="198.5" y="-668.8" font-family="Times,serif" font-size="14" text-anchor="middle">requested</text></g><g class="edge"><title>lvl1a-&gt;lvl2a</title><path d="m271.99-761.84c-14.08 15.49-34.49 37.94-50.22 55.25" fill="none" stroke="#000"/><polygon points="224.22 -704.09 214.9 -699.04 219.04 -708.8" stroke="#000"/></g><g class="node"><title>lvl2b</title><polygon points="485.5 -699 327.5 -699 327.5 -661 485.5 -661" fill="#d5e8d4" stroke="#000"/><text x="406.5" y="-683.8" font-family="Times,serif" font-size="14" text-anchor="middle">Public investigation</text><text x="406.5" y="-668.8" font-family="Times,serif" font-size="14" text-anchor="middle">requested</text></g><g class="edge"><title>lvl1a-&gt;lvl2b</title><path d="m310.14-761.84c18.8 15.77 46.19 38.75 66.97 56.18" fill="none" stroke="#000"/><polygon points="379.58 -708.15 384.99 -699.04 375.08 -702.79" stroke="#000"/></g><g class="node"><title>lvl3a</title><polygon points="287 -625 0 -625 0 -557 287 -557" fill="#d5e8d4" stroke="#000"/><g font-family="Times,serif" font-size="14" text-anchor="middle"><text x="143.5" y="-609.8">Target of investigation name</text><text x="143.5" y="-594.8">and industry that the conflicting</text><text x="143.5" y="-579.8">company or organization operates in </text><text x="143.5" y="-564.8">is disclosed.</text></g></g><g class="edge"><title>lvl2a-&gt;lvl3a</title><path d="m187.1-660.97c-5.01 7.92-11.12 17.59-17.16 27.15" fill="none" stroke="#000"/><polygon points="172.74 -631.71 164.44 -625.12 166.83 -635.45" stroke="#000"/></g><g class="node"><title>lvl3b</title><polygon points="564 -625 305 -625 305 -557 564 -557" fill="#d5e8d4" stroke="#000"/><g font-family="Times,serif" font-size="14" text-anchor="middle"><text x="434.5" y="-609.8">Target of investigation name</text><text x="434.5" y="-594.8">and company or organization</text><text x="434.5" y="-579.8">is disclosed, if deemed necessary</text><text x="434.5" y="-564.8">by remaining team members.</text></g></g><g class="edge"><title>lvl2b-&gt;lvl3b</title><path d="m412.3-660.97c2.47 7.68 5.47 17 8.46 26.27" fill="none" stroke="#000"/><polygon points="424.11 -635.72 423.84 -625.12 417.44 -633.57" stroke="#000"/></g><g class="node"><title>lvl4a</title><polygon points="256.5 -521 38.5 -521 38.5 -485 256.5 -485" fill="#ffe6cc" stroke="#000"/><text x="147.5" y="-499.3" font-family="Times,serif" font-size="14" text-anchor="middle">Private investigation begins</text></g><g class="edge"><title>lvl3a-&gt;lvl4a</title><path d="m145.04-557c0.39 8.44 0.8 17.41 1.18 25.53" fill="none" stroke="#000"/><polygon points="149.72 -531.56 146.69 -521.4 142.73 -531.23" stroke="#000"/></g><g class="node"><title>lvl4b</title><polygon points="537.5 -521 327.5 -521 327.5 -485 537.5 -485" fill="#ffe6cc" stroke="#000"/><text x="432.5" y="-499.3" font-family="Times,serif" font-size="14" text-anchor="middle">Public investigation begins</text></g><g class="edge"><title>lvl3b-&gt;lvl4b</title><path d="m433.73-557c-0.19 8.44-0.4 17.41-0.59 25.53" fill="none" stroke="#000"/><polygon points="436.64 -531.32 432.9 -521.4 429.64 -531.48" stroke="#000"/></g><g class="node"><title>lvl5a</title><polygon points="277 -449 36 -449 36 -396 277 -396" fill="#ffe6cc" stroke="#000"/><g font-family="Times,serif" font-size="14" text-anchor="middle"><text x="156.5" y="-433.8">Compliance officer investigates</text><text x="156.5" y="-418.8">relevant areas of the</text><text x="156.5" y="-403.8">company or organization.</text></g></g><g class="edge"><title>lvl4a-&gt;lvl5a</title><path d="m149.45-484.97c0.87 7.6 1.94 16.86 2.97 25.86" fill="none" stroke="#000"/><polygon points="155.9 -459.49 153.56 -449.16 148.94 -458.69" stroke="#000"/></g><g class="node"><title>lvl5b</title><polygon points="566 -441.5 297 -441.5 297 -403.5 566 -403.5" fill="#ffe6cc" stroke="#000"/><text x="431.5" y="-426.3" font-family="Times,serif" font-size="14" text-anchor="middle">The PrivacyTools team investigates</text><text x="431.5" y="-411.3" font-family="Times,serif" font-size="14" text-anchor="middle">whether there is a COI.</text></g><g class="edge"><title>lvl4b-&gt;lvl5b</title><path d="m432.28-484.97c-0.12 9.71-0.28 22.11-0.42 33.24" fill="none" stroke="#000"/><polygon points="435.36 -451.55 431.73 -441.59 428.36 -451.64" stroke="#000"/></g><g class="node"><title>lvl6a</title><polygon points="352.5 -360 56.5 -360 56.5 -307 352.5 -307" fill="#ffe6cc" stroke="#000"/><g font-family="Times,serif" font-size="14" text-anchor="middle"><text x="204.5" y="-344.8">Voting rights are suspended from the</text><text x="204.5" y="-329.8">team member where appropriate until</text><text x="204.5" y="-314.8">the COI is resolved</text></g></g><g class="edge"><title>lvl5a-&gt;lvl6a</title><path d="m170.64-395.87c4.6 8.34 9.78 17.73 14.68 26.61" fill="none" stroke="#000"/><polygon points="188.53 -370.7 190.29 -360.25 182.4 -367.31" stroke="#000"/></g><g class="node"><title>lvl7a</title><polygon points="387.5 -271 197.5 -271 197.5 -233 387.5 -233" fill="#e1d5e7" stroke="#000"/><text x="292.5" y="-255.8" font-family="Times,serif" font-size="14" text-anchor="middle">Investigation concludes,</text><text x="292.5" y="-240.8" font-family="Times,serif" font-size="14" text-anchor="middle">findings published.</text></g><g class="edge"><title>lvl5b-&gt;lvl7a</title><path d="m422.86-403.1c-11.75 23.81-34.39 65.83-61.36 96.1-9.69 10.88-21.78 21.17-33.13 29.8" fill="none" stroke="#000"/><polygon points="330.41 -274.36 320.29 -271.23 326.25 -279.99" stroke="#000"/></g><g class="edge"><title>lvl6a-&gt;lvl7a</title><path d="m232.83-306.91c10.25 9.26 21.8 19.7 32 28.91" fill="none" stroke="#000"/><polygon points="267.24 -280.54 272.31 -271.24 262.54 -275.35" stroke="#000"/></g><g class="node"><title>lvl8a</title><polygon points="289.5 -197 171.5 -197 171.5 -161 289.5 -161" fill="#e1d5e7" stroke="#000"/><text x="230.5" y="-175.3" font-family="Times,serif" font-size="14" text-anchor="middle">No COI found.</text></g><g class="edge"><title>lvl7a-&gt;lvl8a</title><path d="m276.53-232.72c-7.43 8.52-16.39 18.78-24.43 27.98" fill="none" stroke="#000"/><polygon points="254.56 -202.23 245.35 -197 249.29 -206.84" stroke="#000"/></g><g class="node"><title>lvl8b</title><polygon points="426 -197 333 -197 333 -161 426 -161" fill="#e1d5e7" stroke="#000"/><text x="379.5" y="-175.3" font-family="Times,serif" font-size="14" text-anchor="middle">COI found.</text></g><g class="edge"><title>lvl7a-&gt;lvl8b</title><path d="m314.9-232.72c10.97 8.95 24.29 19.82 35.98 29.36" fill="none" stroke="#000"/><polygon points="353.13 -206.04 358.66 -197 348.7 -200.61" stroke="#000"/></g><g class="node"><title>lvl9a</title><polygon points="283 -125 80 -125 80 -72 283 -72" fill="#dae8fc" stroke="#000"/><g font-family="Times,serif" font-size="14" text-anchor="middle"><text x="181.5" y="-109.8">Voting rights are restored</text><text x="181.5" y="-94.8">to the team member</text><text x="181.5" y="-79.8">after a grace period.</text></g></g><g class="edge"><title>lvl8a-&gt;lvl9a</title><path d="m219.87-160.97c-5 8.01-11.15 17.86-17.05 27.31" fill="none" stroke="#000"/><polygon points="205.78 -131.79 197.51 -125.16 199.84 -135.49" stroke="#000"/></g><g class="node"><title>lvl9b</title><polygon points="508 -125 301 -125 301 -72 508 -72" fill="#dae8fc" stroke="#000"/><g font-family="Times,serif" font-size="14" text-anchor="middle"><text x="404.5" y="-109.8">Voting rights not restored,</text><text x="404.5" y="-94.8">final decision made</text><text x="404.5" y="-79.8">about team member.</text></g></g><g class="edge"><title>lvl8b-&gt;lvl9b</title><path d="m384.92-160.97c2.45 7.69 5.44 17.06 8.33 26.15" fill="none" stroke="#000"/><polygon points="396.63 -135.75 396.33 -125.16 389.96 -133.62" stroke="#000"/></g><g class="node"><title>lvl10a</title><polygon points="354.5 -36 230.5 -36 230.5 0 354.5 0" fill="#dae8fc" stroke="#000"/><text x="292.5" y="-14.3" font-family="Times,serif" font-size="14" text-anchor="middle">Issue resolved.</text></g><g class="edge"><title>lvl9a-&gt;lvl10a</title><path d="m217.85-71.8c13.58 9.61 28.92 20.46 42.14 29.81" fill="none" stroke="#000"/><polygon points="262.19 -44.72 268.33 -36.09 258.15 -39.01" stroke="#000"/></g><g class="edge"><title>lvl9b-&gt;lvl10a</title><path d="m367.83-71.8c-13.71 9.61-29.19 20.46-42.53 29.81" fill="none" stroke="#000"/><polygon points="327.08 -38.96 316.88 -36.09 323.06 -44.7" stroke="#000"/></g><g class="node"><title>legend</title><polygon points="428.5 -802 428.5 -823 576.5 -823 576.5 -802" fill="#d5e8d4" stroke="transparent"/><polygon points="428.5 -802 428.5 -823 576.5 -823 576.5 -802" fill="none" stroke="#000"/><text x="454" y="-808.8" font-family="Times,serif" font-size="14">Report Phase</text><polygon points="428.5 -781 428.5 -802 576.5 -802 576.5 -781" fill="#ffe6cc" stroke="transparent"/><polygon points="428.5 -781 428.5 -802 576.5 -802 576.5 -781" fill="none" stroke="#000"/><text x="431.5" y="-787.8" font-family="Times,serif" font-size="14">Investigation Phase</text><polygon points="428.5 -760 428.5 -781 576.5 -781 576.5 -760" fill="#e1d5e7" stroke="transparent"/><polygon points="428.5 -760 428.5 -781 576.5 -781 576.5 -760" fill="none" stroke="#000"/><text x="476.5" y="-766.8" font-family="Times,serif" font-size="14">Verdict</text><polygon points="428.5 -739 428.5 -760 576.5 -760 576.5 -739" fill="#dae8fc" stroke="transparent"/><polygon points="428.5 -739 428.5 -760 576.5 -760 576.5 -739" fill="none" stroke="#000"/><text x="456" y="-745.8" font-family="Times,serif" font-size="14">Grace period</text></g></g></svg>
